<svg width="138" height="27" viewBox="0 0 138 27" fill="none" xmlns="http://www.w3.org/2000/svg">
<path d="M9.35231 26.5755H4.20075V13.5961H0.691406V9.37024H4.20061V6.36325C4.20061 2.79996 5.75274 0.244385 10.8904 0.244385C11.977 0.244385 13.6829 0.465743 13.6829 0.465743V4.38967H11.8911C10.0654 4.38967 9.35259 4.95095 9.35259 6.50267V9.37024H13.6145L13.235 13.5961H9.35245L9.35231 26.5755ZM21.1727 9.03254C21.0977 9.03254 21.0204 9.0353 20.944 9.03723C16.1672 9.03723 13.9816 12.6688 13.9816 17.8239C13.9816 24.3179 16.8166 26.917 20.9813 26.917C23.3641 26.917 24.9296 25.9033 25.8812 24.0117V26.5773H30.7811V9.37204H25.8812V12.018C25.1042 10.3156 23.495 9.05271 21.1727 9.03254ZM22.4186 13.0981C24.4249 13.0981 25.6291 14.5125 25.6291 16.9183L25.6337 19.3754C25.6337 20.9969 24.6391 22.894 22.4186 22.894C19.0048 22.894 19.096 19.1685 19.096 17.9276C19.096 13.7537 20.9149 13.0981 22.4186 13.0981ZM32.7599 17.9756C32.7599 15.8848 32.6609 9.04373 41.4796 9.04373C45.0195 9.04373 46.4977 10.1813 46.4977 10.1813L45.3096 13.9056C45.3096 13.9056 43.8334 13.084 41.9098 13.084C39.4461 13.084 37.874 14.5275 37.874 17.0674L37.8767 18.8885C37.8767 21.329 39.3936 22.9581 41.9149 22.9581C43.6673 22.9581 45.2824 22.1287 45.2824 22.1287L46.4675 25.7752C46.4675 25.7752 45.1159 26.92 41.5043 26.92C33.1075 26.92 32.76 20.7822 32.76 17.9756H32.7599ZM75.2274 9.03723C80.0044 9.03723 82.2244 12.6688 82.2244 17.8239C82.2244 24.3179 79.3893 26.917 75.2246 26.917C72.8418 26.917 71.0803 25.9035 70.1288 24.0117V26.5773L65.2906 26.5754V0.76752L70.4275 0.314716V11.7849C71.1689 9.77814 73.6054 9.03723 75.2276 9.03723H75.2274ZM73.7873 13.0981C71.781 13.0981 70.4275 14.5125 70.4275 16.9183L70.4227 19.3754C70.4197 20.9969 71.36 22.894 73.7873 22.894C77.2011 22.894 77.1099 19.1685 77.1099 17.9276C77.1099 13.7537 75.2911 13.0981 73.7873 13.0981ZM55.4107 9.05147C49.9927 9.05147 47.1323 12.037 47.1323 17.3427V18.3285C47.1323 25.2148 51.1492 26.9877 55.938 26.9877C60.5928 26.9877 62.6997 25.6719 62.6997 25.6719L61.7384 22.1677C61.7384 22.1677 59.2601 23.2335 56.5539 23.2335C53.7485 23.2335 52.542 22.5108 52.2328 19.786H63.1104V16.9748C63.1104 11.2195 59.9002 9.05133 55.4106 9.05133L55.4107 9.05147ZM55.5413 12.5603C57.4167 12.5603 58.632 13.7227 58.5653 16.4183H52.2422C52.3518 13.5812 53.6624 12.5605 55.5413 12.5605V12.5603ZM92.4672 9.02784C86.9033 9.02784 83.9742 12.1968 83.9742 17.8757C83.9742 25.6674 89.0234 26.9217 92.4765 26.9217C97.5317 26.9217 100.895 24.171 100.895 17.9464C100.895 11.4678 97.1133 9.02784 92.4672 9.02784ZM92.3972 13.1122C94.8437 13.1122 95.8132 14.9628 95.8132 17.0693V18.8804C95.8132 21.4322 94.4567 22.9082 92.3879 22.9082C90.4531 22.9082 89.0934 21.5275 89.0934 18.8804V17.0693C89.0934 14.2461 90.7114 13.1122 92.3972 13.1122ZM111.129 9.02784C105.565 9.02784 102.636 12.1968 102.636 17.8757C102.636 25.6674 107.685 26.9217 111.138 26.9217C116.193 26.9217 119.556 24.171 119.556 17.9464C119.556 11.4678 115.775 9.02784 111.129 9.02784ZM111.059 13.1122C113.505 13.1122 114.474 14.9628 114.474 17.0693V18.8804C114.474 21.4322 113.118 22.9082 111.049 22.9082C109.114 22.9082 107.755 21.5275 107.755 18.8804V17.0693C107.755 14.2461 109.373 13.1122 111.059 13.1122ZM121.497 26.5755V0.76752L126.649 0.314716V17.6129L131.761 9.37024H137.201L131.869 17.9072L137.407 26.5755H131.95L126.649 18.1587V26.5755H121.497Z" fill="white"/>
</svg>
