<svg width="37" height="37" viewBox="0 0 37 37" fill="none" xmlns="http://www.w3.org/2000/svg">
<rect x="0.199219" y="0.349121" width="36" height="36" rx="8" fill="#F77F00"/>
<path d="M21.2263 11.0506V11.0474H22.0703L22.3787 11.109C22.5843 11.1489 22.7709 11.2013 22.9386 11.2662C23.1064 11.331 23.2687 11.4067 23.4255 11.4931C23.5825 11.5795 23.7247 11.6676 23.8524 11.7573C23.979 11.8459 24.0927 11.9399 24.1933 12.0393C24.2928 12.1398 24.4481 12.1657 24.6591 12.1171C24.8701 12.0685 25.0973 12.001 25.3408 11.9145C25.5842 11.8281 25.825 11.7308 26.0631 11.6228C26.3011 11.5147 26.4461 11.4461 26.4981 11.4169C26.5489 11.3867 26.576 11.3705 26.5792 11.3683L26.5824 11.3634L26.5987 11.3553L26.6149 11.3472L26.6311 11.3391L26.6474 11.331L26.6506 11.3261L26.6555 11.3229L26.6604 11.3197L26.6636 11.3148L26.6798 11.3099L26.6961 11.3067L26.6928 11.331L26.6879 11.3553L26.6798 11.3796L26.6717 11.4039L26.6636 11.4202L26.6555 11.4364L26.6474 11.4607C26.642 11.4769 26.6366 11.4985 26.6311 11.5255C26.6257 11.5525 26.5743 11.6606 26.4769 11.8497C26.3796 12.0388 26.2578 12.2306 26.1118 12.4251C25.9657 12.6196 25.8348 12.7665 25.719 12.8659C25.6021 12.9664 25.5247 13.0367 25.4869 13.0767C25.449 13.1177 25.403 13.1555 25.3489 13.1901L25.2677 13.2436L25.2515 13.2517L25.2353 13.2598L25.2321 13.2647L25.2272 13.2679L25.2223 13.2712L25.2191 13.276L25.2028 13.2841L25.1866 13.2922L25.1834 13.2971L25.1785 13.3003L25.1736 13.3036L25.1704 13.3084L25.1671 13.3133L25.1622 13.3165L25.1574 13.3198L25.1541 13.3246H25.2353L25.6898 13.2274C25.9927 13.1626 26.2822 13.0842 26.5581 12.9924L26.9963 12.8465L27.045 12.8303L27.0694 12.8222L27.0856 12.8141L27.1018 12.806L27.1181 12.7979L27.1343 12.7898L27.1668 12.7849L27.1992 12.7817V12.8141L27.1911 12.8173L27.183 12.8222L27.1798 12.827L27.1749 12.8303L27.17 12.8335L27.1668 12.8384L27.1635 12.8433L27.1586 12.8465L27.1538 12.8497L27.1505 12.8546L27.1473 12.8595L27.1424 12.8627L27.1343 12.8789L27.1262 12.8951L27.1213 12.8984C27.1192 12.9016 27.0504 12.9934 26.9152 13.1739C26.7799 13.3554 26.7069 13.4473 26.6961 13.4494C26.6853 13.4527 26.6701 13.4689 26.6506 13.4981C26.6322 13.5283 26.5175 13.6488 26.3065 13.8595C26.0955 14.0702 25.8889 14.2577 25.6865 14.422C25.4831 14.5873 25.3803 14.7904 25.3781 15.0314C25.3749 15.2713 25.3624 15.5425 25.3408 15.8451C25.3192 16.1476 25.2786 16.4745 25.2191 16.8257C25.1596 17.1768 25.0676 17.574 24.9431 18.017C24.8187 18.46 24.6672 18.8922 24.4887 19.3137C24.3101 19.7351 24.1235 20.1133 23.9287 20.4482C23.7339 20.7832 23.5554 21.0669 23.3931 21.2992C23.2308 21.5315 23.0658 21.7503 22.898 21.9556C22.7303 22.1609 22.5183 22.3922 22.2618 22.6493C22.0043 22.9054 21.8636 23.0459 21.8398 23.0708C21.8149 23.0945 21.7089 23.1832 21.5217 23.3366C21.3356 23.4911 21.1354 23.6456 20.9211 23.8001C20.708 23.9536 20.5121 24.0816 20.3336 24.1843C20.155 24.2869 19.9397 24.4042 19.6876 24.536C19.4366 24.6689 19.165 24.7921 18.8728 24.9056C18.5806 25.019 18.2723 25.1244 17.9476 25.2216C17.623 25.3189 17.3092 25.3945 17.0063 25.4485C16.7033 25.5026 16.3597 25.5485 15.9756 25.5863L15.3994 25.643V25.6511H14.3444V25.643L14.2064 25.6349C14.1145 25.6295 14.0387 25.6241 13.9792 25.6187C13.9197 25.6133 13.6952 25.5836 13.3056 25.5296C12.9161 25.4756 12.6104 25.4215 12.3886 25.3675C12.1668 25.3135 11.8367 25.2108 11.3985 25.0595C10.9603 24.9083 10.5853 24.7553 10.2737 24.6008C9.96316 24.4474 9.76839 24.3501 9.68939 24.3091C9.61148 24.2691 9.52384 24.2194 9.42645 24.16L9.28037 24.0708L9.27714 24.066L9.27226 24.0627L9.26739 24.0595L9.26414 24.0546L9.24791 24.0465L9.23168 24.0384L9.22845 24.0335L9.22357 24.0303L9.2187 24.0271L9.21545 24.0222L9.21222 24.0173L9.20733 24.0141H9.19922V23.9817L9.21545 23.9849L9.23168 23.9898L9.30472 23.9979C9.35341 24.0033 9.48597 24.0114 9.70237 24.0222C9.9188 24.033 10.1487 24.033 10.3922 24.0222C10.6356 24.0114 10.8845 23.9871 11.1388 23.9493C11.3931 23.9114 11.6934 23.8466 12.0396 23.7548C12.3859 23.6629 12.704 23.5538 12.994 23.4273C13.2829 23.2999 13.4885 23.2048 13.6108 23.1421C13.732 23.0805 13.917 22.9659 14.1659 22.7985L14.5392 22.5472L14.5424 22.5424L14.5473 22.5391L14.5522 22.5359L14.5554 22.531L14.5586 22.5262L14.5635 22.5229L14.5684 22.5197L14.5716 22.5148L14.5879 22.5099L14.6041 22.5067L14.6073 22.4905L14.6122 22.4743L14.6171 22.471L14.6203 22.4662L14.4905 22.4581C14.4039 22.4527 14.32 22.4473 14.2389 22.4419C14.1577 22.4365 14.0306 22.4122 13.8575 22.3689C13.6844 22.3257 13.4977 22.2609 13.2975 22.1744C13.0973 22.088 12.9026 21.9853 12.7132 21.8665C12.5238 21.7476 12.387 21.6487 12.3026 21.5699C12.2192 21.492 12.111 21.3818 11.9779 21.2392C11.8459 21.0955 11.7312 20.948 11.6338 20.7967C11.5365 20.6454 11.4434 20.4709 11.3547 20.2732L11.22 19.9782L11.2118 19.9539L11.2037 19.9296L11.1989 19.9134L11.1956 19.8972L11.22 19.9004L11.2443 19.9053L11.4228 19.9296C11.5419 19.9458 11.7285 19.9512 11.9828 19.9458C12.2371 19.9404 12.4129 19.9296 12.5103 19.9134C12.6077 19.8972 12.6672 19.8863 12.6888 19.8809L12.7213 19.8728L12.7619 19.8647L12.8025 19.8566L12.8057 19.8518L12.8106 19.8485L12.8155 19.8453L12.8187 19.8404L12.7862 19.8323L12.7538 19.8242L12.7213 19.8161L12.6888 19.808L12.6564 19.7999C12.6348 19.7945 12.5969 19.7837 12.5428 19.7675C12.4887 19.7513 12.3426 19.6918 12.1045 19.5892C11.8665 19.4865 11.6771 19.3866 11.5365 19.2893C11.3954 19.1918 11.261 19.0851 11.1339 18.97C11.0073 18.8533 10.8683 18.7031 10.7168 18.5194C10.5653 18.3357 10.4301 18.1223 10.311 17.8792C10.192 17.6361 10.1027 17.4038 10.0432 17.1822C9.98394 16.962 9.94483 16.7369 9.92638 16.5096L9.89714 16.1692L9.91338 16.1725L9.92961 16.1773L9.94584 16.1854L9.96207 16.1935L9.9783 16.2016L9.99453 16.2097L10.2461 16.3232C10.4138 16.3988 10.6221 16.4637 10.871 16.5177C11.1199 16.5717 11.2687 16.6014 11.3173 16.6068L11.3904 16.615H11.5365L11.5332 16.6101L11.5283 16.6068L11.5235 16.6036L11.5202 16.5987L11.517 16.5939L11.5121 16.5906L11.5072 16.5874L11.504 16.5825L11.4878 16.5744L11.4715 16.5663L11.4683 16.5615L11.4634 16.5582L11.4586 16.555L11.4553 16.5501L11.4391 16.542L11.4228 16.5339L11.4196 16.529C11.4164 16.5269 11.3698 16.4923 11.28 16.4253C11.1913 16.3572 11.0982 16.2692 11.0008 16.1611C10.9035 16.0531 10.8061 15.9396 10.7087 15.8207C10.6111 15.7016 10.5242 15.5742 10.449 15.4398C10.3733 15.3048 10.2932 15.133 10.2088 14.9244C10.1255 14.7169 10.0622 14.5079 10.0189 14.2971C9.9756 14.0864 9.95126 13.8784 9.94584 13.6731C9.94043 13.4678 9.94584 13.2922 9.96207 13.1464C9.9783 13.0005 10.0108 12.8357 10.0595 12.652C10.1081 12.4683 10.1785 12.2738 10.2705 12.0685L10.4084 11.7605L10.4165 11.7362L10.4246 11.7119L10.4295 11.7087L10.4328 11.7038L10.436 11.6989L10.4409 11.6957L10.4458 11.6989L10.449 11.7038L10.4522 11.7087L10.4571 11.7119L10.462 11.7151L10.4652 11.72L10.4685 11.7249L10.4733 11.7281L10.4815 11.7443L10.4896 11.7605L10.4945 11.7638L10.4977 11.7686L10.7168 12.0118C10.8629 12.1738 11.036 12.3548 11.2362 12.5547C11.4364 12.7546 11.5473 12.8584 11.5689 12.8659C11.5906 12.8746 11.6176 12.8994 11.6501 12.9405C11.6825 12.9805 11.7907 13.0761 11.9747 13.2274C12.1587 13.3787 12.3994 13.5543 12.697 13.7542C12.9945 13.9541 13.3246 14.1513 13.687 14.3458C14.0495 14.5403 14.4391 14.7159 14.8557 14.8725C15.2723 15.0292 15.5644 15.1319 15.7321 15.1805C15.8999 15.2291 16.1866 15.2913 16.5924 15.3669C16.9981 15.4425 17.3038 15.4912 17.5094 15.5128C17.715 15.5344 17.8557 15.5468 17.9314 15.5501L18.045 15.5533L18.0418 15.529L18.0369 15.5047L18.0044 15.3021C17.9828 15.167 17.972 14.9779 17.972 14.7348C17.972 14.4917 17.9909 14.2674 18.0288 14.0621C18.0667 13.8568 18.1235 13.6488 18.1992 13.4381C18.275 13.2274 18.3491 13.0583 18.4216 12.9308C18.4952 12.8044 18.5915 12.6601 18.7105 12.498C18.8295 12.3359 18.9837 12.1685 19.1731 11.9956C19.3624 11.8227 19.5788 11.6687 19.8223 11.5336C20.0658 11.3986 20.2903 11.2959 20.4959 11.2257C20.7015 11.1554 20.8746 11.1095 21.0153 11.0879C21.1559 11.0663 21.2263 11.0538 21.2263 11.0506Z" fill="white"/>
</svg>
