<svg width="37" height="37" viewBox="0 0 37 37" fill="none" xmlns="http://www.w3.org/2000/svg">
<rect x="0.199219" y="0.349121" width="36" height="36" rx="8" fill="#F77F00"/>
<path fill-rule="evenodd" clip-rule="evenodd" d="M9.19922 18.3491C9.19922 14.754 9.19922 12.9564 10.0559 11.6617C10.4385 11.0835 10.9336 10.5884 11.5118 10.2058C12.8065 9.34912 14.6041 9.34912 18.1992 9.34912C21.7944 9.34912 23.5919 9.34912 24.8867 10.2058C25.4648 10.5884 25.96 11.0835 26.3425 11.6617C27.1992 12.9564 27.1992 14.754 27.1992 18.3491C27.1992 21.9443 27.1992 23.7418 26.3425 25.0366C25.96 25.6147 25.4648 26.1099 24.8867 26.4924C23.5919 27.3491 21.7944 27.3491 18.1992 27.3491C14.6041 27.3491 12.8065 27.3491 11.5118 26.4924C10.9336 26.1099 10.4385 25.6147 10.0559 25.0366C9.19922 23.7418 9.19922 21.9443 9.19922 18.3491ZM22.8585 18.3493C22.8585 20.9227 20.7724 23.0088 18.1991 23.0088C15.6257 23.0088 13.5396 20.9227 13.5396 18.3493C13.5396 15.776 15.6257 13.6899 18.1991 13.6899C20.7724 13.6899 22.8585 15.776 22.8585 18.3493ZM18.1991 21.4324C19.9018 21.4324 21.2821 20.052 21.2821 18.3493C21.2821 16.6467 19.9018 15.2663 18.1991 15.2663C16.4964 15.2663 15.1161 16.6467 15.1161 18.3493C15.1161 20.052 16.4964 21.4324 18.1991 21.4324ZM23.0425 14.5507C23.6471 14.5507 24.1373 14.0605 24.1373 13.4558C24.1373 12.8512 23.6471 12.361 23.0425 12.361C22.4378 12.361 21.9477 12.8512 21.9477 13.4558C21.9477 14.0605 22.4378 14.5507 23.0425 14.5507Z" fill="white"/>
</svg>
