<svg width="37" height="37" viewBox="0 0 37 37" fill="none" xmlns="http://www.w3.org/2000/svg">
<rect x="0.199219" y="0.349121" width="36" height="36" rx="8" fill="#F77F00"/>
<path d="M9.19922 11.7692C9.19922 11.192 9.40193 10.7158 9.80733 10.3406C10.2127 9.96542 10.7398 9.77783 11.3884 9.77783C12.0255 9.77783 12.5409 9.96252 12.9347 10.3319C13.3401 10.7129 13.5428 11.2093 13.5428 11.8211C13.5428 12.3752 13.3459 12.837 12.9521 13.2064C12.5467 13.5874 12.0139 13.7778 11.3537 13.7778H11.3363C10.6992 13.7778 10.1838 13.5874 9.78995 13.2064C9.39612 12.8255 9.19922 12.3464 9.19922 11.7692ZM9.42509 26.9207V15.3536H13.2822V26.9207H9.42509ZM15.4193 26.9207H19.2764V20.4618C19.2764 20.0578 19.3228 19.7461 19.4154 19.5267C19.5776 19.1342 19.8237 18.8023 20.1539 18.5311C20.484 18.2598 20.8981 18.1241 21.3961 18.1241C22.6934 18.1241 23.3421 18.9957 23.3421 20.7389V26.9207H27.1992V20.2887C27.1992 18.5801 26.7938 17.2843 25.983 16.4012C25.1722 15.5181 24.1008 15.0765 22.7687 15.0765C21.2745 15.0765 20.1104 15.7172 19.2764 16.9986V17.0332H19.2591L19.2764 16.9986V15.3536H15.4193C15.4425 15.723 15.454 16.8716 15.454 18.7995C15.454 20.7273 15.4425 23.4344 15.4193 26.9207Z" fill="white"/>
</svg>
