<svg width="112" height="38" viewBox="0 0 112 38" fill="none" xmlns="http://www.w3.org/2000/svg">
<path d="M13.756 0.191833H14.7493C18.1975 0.267597 21.5896 1.66921 24.0258 4.15045C23.1263 5.07855 22.208 5.96876 21.3272 6.89686C19.9591 5.64677 18.31 4.68079 16.5109 4.33986C13.8498 3.77164 10.9825 4.28304 8.75235 5.81724C6.31608 7.4272 4.66692 10.1547 4.31085 13.0715C3.9173 15.9505 4.72314 18.9811 6.57845 21.2161C8.35879 23.3943 11.0762 24.758 13.8872 24.8527C16.5109 25.0042 19.247 24.1898 21.1585 22.3336C22.6578 21.0267 23.3512 19.0379 23.5761 17.1059C20.4651 17.1059 17.3542 17.1249 14.2433 17.1059V13.2041H27.3429C28.0175 17.39 27.043 22.1063 23.8946 25.0989C21.7957 27.2203 18.8909 28.4704 15.9299 28.7166C13.0627 29.0007 10.1017 28.4514 7.55295 27.0498C4.49826 25.402 2.062 22.6177 0.862607 19.3409C-0.261821 16.3294 -0.280562 12.92 0.768905 9.8895C1.72467 7.12415 3.56123 4.68079 5.92253 2.97612C8.19013 1.2904 10.945 0.3623 13.756 0.191833Z" fill="white"/>
<path d="M88.9062 1.17682H92.9167V28.2242C91.5861 28.2242 90.2368 28.2431 88.9062 28.2052C88.925 19.2084 88.9062 10.1926 88.9062 1.17682Z" fill="white"/>
<path d="M36.2625 10.5525C38.7362 10.079 41.4161 10.6094 43.4588 12.1057C45.3141 13.4315 46.6072 15.515 47.0008 17.7879C47.5068 20.4206 46.8696 23.2996 45.183 25.383C43.3651 27.7127 40.3854 28.9628 37.4806 28.7734C34.8195 28.6219 32.2333 27.2771 30.6591 25.08C28.8787 22.6556 28.4477 19.322 29.4222 16.4809C30.3967 13.4315 33.1516 11.1018 36.2625 10.5525ZM36.8247 14.1513C35.8127 14.4164 34.8757 15.0036 34.201 15.837C32.3832 18.0341 32.4956 21.6139 34.5009 23.6594C35.644 24.8338 37.3682 25.383 38.9611 25.061C40.4416 24.7959 41.7347 23.792 42.4468 22.4662C43.6837 20.2122 43.3276 17.106 41.4349 15.3445C40.2167 14.2081 38.4364 13.7346 36.8247 14.1513Z" fill="white"/>
<path d="M56.1267 10.5524C58.9565 10.0031 62.0487 10.7986 64.1664 12.8064C67.6146 15.9316 67.9894 21.7843 65.0472 25.383C63.2668 27.6559 60.3808 28.906 57.5322 28.7734C54.8149 28.6977 52.135 27.3339 50.5233 25.08C48.7055 22.5987 48.3119 19.1894 49.3426 16.2915C50.3734 13.3367 53.072 11.0828 56.1267 10.5524ZM56.6889 14.1512C55.6769 14.4163 54.7399 15.0035 54.0652 15.8179C52.2662 17.9772 52.3411 21.5002 54.2714 23.5647C55.4146 24.7959 57.1949 25.402 58.8441 25.061C60.3058 24.7769 61.6177 23.792 62.3298 22.4662C63.5479 20.1933 63.1919 17.087 61.2803 15.3255C60.0622 14.189 58.2819 13.7345 56.6889 14.1512Z" fill="white"/>
<path d="M72.9756 11.6511C75.1307 10.2873 77.998 9.90852 80.3218 11.0828C81.0527 11.4048 81.6524 11.9541 82.2334 12.5034C82.2521 11.992 82.2334 11.4617 82.2521 10.9313C83.5077 10.9503 84.7633 10.9313 86.0377 10.9503V27.656C86.0189 30.1751 85.3818 32.8457 83.5827 34.683C81.6149 36.7096 78.5977 37.3347 75.8803 36.918C72.9756 36.4823 70.4456 34.342 69.3212 31.6335C70.4456 31.0842 71.6262 30.6486 72.7881 30.1372C73.4441 31.6903 74.7746 33.0162 76.4425 33.3192C78.1104 33.6223 80.0407 33.2056 81.1277 31.804C82.2896 30.3645 82.2896 28.3947 82.2334 26.6332C81.3713 27.4855 80.378 28.2431 79.1787 28.5272C76.5737 29.2659 73.7064 28.3568 71.7012 26.5764C69.6772 24.7959 68.4778 22.0495 68.5903 19.3221C68.6465 16.2347 70.3706 13.261 72.9756 11.6511ZM76.8548 14.0755C75.7117 14.2649 74.6435 14.9089 73.9126 15.7991C72.151 17.9204 72.151 21.3108 73.9313 23.3943C74.9433 24.6255 76.5737 25.3073 78.1479 25.1369C79.6284 24.9853 80.9965 24.0383 81.7274 22.7314C82.9642 20.5153 82.7581 17.5037 81.0902 15.5718C80.0595 14.3785 78.4103 13.7914 76.8548 14.0755Z" fill="white"/>
<path d="M97.7291 12.617C99.978 10.4957 103.445 9.77592 106.331 10.8934C109.067 11.9352 110.81 14.5679 111.691 17.2765C107.624 18.9811 103.576 20.6668 99.5095 22.3715C100.072 23.4511 100.934 24.4361 102.096 24.8338C103.726 25.421 105.675 25.2126 107.043 24.1141C107.587 23.6974 108.018 23.1481 108.43 22.6177C109.461 23.3185 110.491 24.0004 111.522 24.7012C110.06 26.9173 107.605 28.4704 104.963 28.7167C102.039 29.0765 98.9285 27.9401 97.0357 25.6293C93.9248 21.9927 94.2247 15.8938 97.7291 12.617ZM99.7344 16.1211C99.0972 17.0492 98.8348 18.1856 98.8536 19.3031C101.571 18.1667 104.288 17.0302 107.006 15.8748C106.556 14.8142 105.469 14.1702 104.363 13.9997C102.583 13.6777 100.728 14.6437 99.7344 16.1211Z" fill="white"/>
</svg>
