<svg width="142" height="35" viewBox="0 0 142 35" fill="none" xmlns="http://www.w3.org/2000/svg">
<path d="M15.4543 0.575655C13.6277 0.782544 10.8879 1.64193 9.32898 2.50131C5.14045 4.77709 2.30611 8.32603 0.888941 13.0526C0.605507 13.9757 0.274834 16.4902 0.290581 17.6679C0.290581 18.7023 0.605507 21.2327 0.794463 21.8375C0.888942 22.1239 1.09364 22.8083 1.26685 23.3334C1.55029 24.2246 2.92022 27.0256 3.15641 27.2166C3.20365 27.2643 3.45559 27.5826 3.69179 27.9486C4.2744 28.8239 5.8018 30.3836 6.95128 31.2748C7.83308 31.9591 10.321 33.4073 10.6359 33.4232C10.7147 33.4232 10.7304 32.8185 10.6832 32.0228C10.5729 30.2562 10.9036 27.8532 11.6122 25.4023C11.7382 24.9885 11.8326 24.4474 11.8326 24.2087C11.8326 23.97 11.8956 23.7154 11.9744 23.6358C12.0531 23.5403 12.1948 23.0788 12.2735 22.6014C12.368 22.1239 12.5255 21.3919 12.6357 20.9781C12.7932 20.3574 12.7774 20.1187 12.557 19.4503C12.2421 18.4318 12.2263 16.7766 12.5412 15.9809C13.2813 14.0871 14.1001 13.3709 15.4858 13.3709C17.1549 13.3709 17.958 14.6441 17.643 16.7766C17.5013 17.7474 17.1077 19.2752 16.8557 19.7527C16.7927 19.8959 16.6825 20.2938 16.6353 20.628C16.5723 20.9781 16.4463 21.4714 16.3676 21.742C16.1471 22.3626 16.5723 23.5721 17.1392 24.0337C17.6745 24.4634 18.7925 24.5907 19.816 24.352C20.5404 24.1928 20.8396 24.0018 21.5954 23.2698C22.4929 22.3786 23.17 21.3441 23.17 20.8508C23.17 20.7075 23.2487 20.5166 23.3432 20.4211C23.7841 19.9755 24.0203 16.5061 23.6896 15.042C23.3275 13.4346 22.2095 11.8591 20.7608 10.936C19.3122 9.99705 16.3204 9.72651 14.478 10.3631C13.1868 10.8087 12.0373 11.5567 11.2973 12.432C10.6359 13.2118 9.94309 14.485 9.94309 14.9306C9.94309 15.0897 9.86436 15.2966 9.76988 15.3921C9.6754 15.4876 9.56518 16.0923 9.51794 16.7448C9.4392 17.7156 9.50219 18.1612 9.78562 19.1161C9.97458 19.7686 10.321 20.5325 10.5257 20.8189C10.9509 21.3919 10.9509 21.6147 10.5572 23.1425C10.447 23.5562 10.258 23.9382 10.1478 23.9859C9.15577 24.3679 7.14024 21.9648 6.46315 19.5776C6.21121 18.6705 6.19546 15.4398 6.4474 14.485C6.55762 14.0871 6.74658 13.546 6.87255 13.2595C6.99852 12.989 7.10875 12.7184 7.10875 12.6548C7.10875 12.5911 7.42367 12.05 7.81733 11.4612C9.86436 8.34194 13.1868 6.68683 17.3911 6.68683C18.3516 6.68683 19.3437 6.75049 19.6113 6.83006C21.7843 7.51439 22.3669 7.73719 23.2173 8.24646C24.8706 9.24907 26.0673 10.6177 27.2641 12.9094C27.3428 13.0526 27.453 13.4346 27.5003 13.7529C27.5632 14.0712 27.6735 14.3735 27.7522 14.4213C27.8309 14.469 27.8939 15.5035 27.8939 16.7289C27.8939 18.941 27.7365 19.8322 27.0751 21.6465C26.335 23.6358 24.4297 25.832 22.6976 26.6914C21.7056 27.1688 19.8475 27.694 19.1075 27.694C18.1154 27.694 16.1629 26.8665 15.6275 26.198C15.3756 25.8957 15.1394 26.0071 15.1394 26.4368C15.1394 26.5959 15.0764 26.8665 14.9819 27.0256C14.9032 27.1688 14.7615 27.6144 14.6827 28.0123C14.2261 30.113 13.5805 31.8159 12.5885 33.4073C12.2893 33.9007 12.5412 34.1871 13.36 34.2985C13.7694 34.3622 14.3206 34.4736 14.5725 34.5532C15.2024 34.7601 18.6193 34.7282 19.7688 34.5213C20.8081 34.3304 22.4929 33.8529 23.2487 33.5346C28.0041 31.5612 31.6101 27.5508 33.1689 22.4422C34.0035 19.7208 34.0507 16.5538 33.2949 13.3709C33.043 12.3365 32.9642 12.0978 32.2871 10.5063C31.3109 8.1828 29.1064 5.46141 26.8704 3.79039C24.9493 2.35808 23.0598 1.53053 20.1152 0.814373C19.2964 0.623398 16.3833 0.464253 15.4543 0.575655ZM57.4498 6.3208C56.8357 6.41629 55.8594 7.43482 55.6075 8.23054C55.3398 9.10584 55.6075 10.0448 56.3633 10.7769C58.0324 12.4161 60.9297 10.8724 60.5676 8.517C60.3471 7.02104 58.9929 6.06617 57.4498 6.3208ZM40.2863 7.25976C40.1446 7.4189 40.1446 26.6118 40.302 26.8346C40.3808 26.9619 41.0579 27.0097 42.3805 26.9938L44.3488 26.9779L44.4276 23.7472C44.4906 21.1213 44.5535 20.4847 44.7425 20.3733C44.8685 20.2938 45.9392 20.2142 47.1202 20.2142C49.7026 20.2142 50.7891 20.0232 51.9701 19.3866C53.5132 18.5432 54.4108 17.3337 54.8989 15.408C55.1981 14.1985 55.1981 13.3232 54.8831 12.0819C54.5997 10.9678 54.4737 10.6973 53.7966 9.79017C52.9621 8.66023 52.1118 8.03957 50.7261 7.54622C49.9545 7.29159 49.3089 7.24384 45.1362 7.1961C42.538 7.16427 40.3493 7.1961 40.2863 7.25976ZM48.931 11.2225C49.986 11.5567 50.5057 12.0341 50.7419 12.8935C51.041 14.0234 50.8206 15.0738 50.1592 15.7104C49.4349 16.3947 48.7893 16.5538 46.6793 16.5538C45.2936 16.5538 44.8685 16.5061 44.6795 16.2992C44.4748 16.1082 44.4276 15.6467 44.4276 13.8325C44.4276 10.9678 44.4118 10.9838 46.6006 10.9838C47.5453 10.9838 48.4586 11.0792 48.931 11.2225ZM76.5501 10.2835C76.5501 11.3816 76.4714 12.4161 76.3926 12.5911C76.2824 12.798 76.062 12.8935 75.6841 12.8935C75.4006 12.8935 75.1329 12.9572 75.1014 13.0526C75.0857 13.1322 75.0857 13.6892 75.1329 14.2781C75.2117 15.3284 75.2274 15.3443 75.6998 15.4557C75.9675 15.5035 76.2667 15.599 76.3611 15.6626C76.5029 15.7422 76.5501 16.9994 76.5501 20.1824C76.5501 24.4634 76.5658 24.6225 76.9123 25.2591C77.6366 26.6118 78.7703 27.0893 81.0693 27.0256L82.6124 26.9779L82.6597 25.4341L82.7069 23.8745H82.3133C81.7149 23.8745 80.8331 23.3971 80.7386 23.0151C80.6914 22.8242 80.6441 21.1372 80.6441 19.2434C80.6441 16.6334 80.6914 15.7581 80.8489 15.6308C80.9591 15.5353 81.4 15.4398 81.8251 15.408L82.6124 15.3603V12.9731L81.7464 12.9253C81.274 12.8935 80.8331 12.7821 80.7701 12.6866C80.7071 12.5752 80.6441 11.5408 80.6441 10.379V8.27829H76.5501V10.2835ZM135.079 8.37377C135.016 8.43743 134.969 9.44005 134.969 10.6018C134.969 12.8617 134.953 12.8935 134.087 12.8935C133.694 12.8935 133.694 12.9094 133.741 14.1189C133.788 15.3284 133.804 15.3603 134.213 15.408C134.434 15.4398 134.701 15.5512 134.78 15.6467C134.875 15.7581 134.969 17.6838 135.016 20.1346C135.064 22.49 135.142 24.6384 135.205 24.8931C135.394 25.5933 136.37 26.4845 137.299 26.7869C138.339 27.137 140.984 27.1688 141.252 26.8346C141.378 26.6914 141.425 26.1185 141.394 25.2909L141.346 23.9541L140.795 23.8586C140.197 23.7631 139.52 23.4448 139.347 23.1743C139.284 23.0788 139.221 21.3441 139.221 19.323C139.221 15.1693 139.126 15.4398 140.496 15.4398C141.394 15.4398 141.472 15.2807 141.394 13.8325L141.346 12.9731L140.323 12.8935L139.299 12.8139L139.221 10.5859L139.142 8.35786L137.158 8.31012C136.071 8.2942 135.142 8.32603 135.079 8.37377ZM68.7557 12.5115C67.9841 12.7184 67.0866 13.2436 66.4882 13.8643C65.7639 14.6282 65.5749 14.5804 65.4962 13.6097L65.4489 12.9731H61.5123V26.9779L63.4964 27.0097C65.4489 27.0574 65.4962 27.0415 65.5906 26.6914C65.6379 26.5004 65.6851 24.4793 65.6851 22.1876C65.6851 17.6519 65.7009 17.5246 66.6299 16.6334C67.0393 16.2355 67.2598 16.156 68.1416 16.1082L69.1651 16.0446L69.7792 16.6971C70.5035 17.461 70.4248 16.7289 70.4878 23.3175C70.5035 25.0681 70.5193 26.6118 70.535 26.771C70.5665 26.9938 70.8184 27.0256 72.582 26.9938L74.5818 26.9779V15.8059L74.1252 14.8987C73.3379 13.3232 72.1254 12.5752 70.2673 12.4797C69.606 12.4638 68.9289 12.4638 68.7557 12.5115ZM88.4386 12.5115C86.738 12.9731 85.9192 13.4346 84.8642 14.485C83.447 15.9332 82.8014 17.6201 82.8014 19.8959C82.8172 23.8904 85.2893 26.8505 88.9425 27.2007C92.0603 27.503 94.4694 26.58 96.0126 24.4952C96.233 24.1928 96.7054 23.222 96.7054 23.047C96.7054 22.9833 95.7921 22.9197 94.6899 22.9197H92.6744L92.202 23.413C91.6509 23.9859 90.8793 24.352 90.1707 24.352C89.4621 24.352 88.3756 23.8427 87.8717 23.3016C87.4938 22.8719 86.9427 21.6306 86.9427 21.2009C86.9427 21.0577 88.0922 21.0099 91.7926 21.0099C94.4537 21.0099 96.7054 20.9462 96.8157 20.8826C97.0518 20.7234 96.8314 18.193 96.485 17.27C95.7764 15.3443 94.438 13.7211 93.0838 13.1481C92.6901 12.989 92.2335 12.7821 92.076 12.7025C91.7453 12.5275 88.9425 12.3842 88.4386 12.5115ZM91.5091 15.9968C92.1232 16.4265 92.6586 17.4451 92.5799 18.018C92.5326 18.384 92.5012 18.384 89.84 18.4318C86.7695 18.4795 86.7537 18.4636 87.2419 17.3177C87.5883 16.522 88.2811 15.8059 88.9267 15.599C89.6668 15.3603 90.8635 15.5512 91.5091 15.9968ZM111.743 12.5115C109.917 13.0049 108.641 13.8165 107.649 15.0738C107.255 15.5831 106.941 16.0605 106.941 16.156C106.941 16.2355 106.83 16.522 106.689 16.7926C106.547 17.0472 106.342 17.8429 106.232 18.5591C105.681 21.9648 107.192 25.1477 110.027 26.58L111.113 27.137H113.397C115.758 27.137 115.963 27.0893 117.412 26.3094C118.467 25.7365 120.199 23.5085 119.931 23.0629C119.868 22.9833 118.971 22.9197 117.916 22.9197H115.979L115.585 23.3812C114.011 25.1795 111.066 24.2565 110.436 21.7579C110.342 21.4237 110.342 21.1372 110.42 21.0736C110.499 21.0258 112.751 20.994 115.444 21.0099C119.286 21.0099 120.325 20.9781 120.341 20.8189C120.482 18.8296 119.538 15.8854 118.357 14.6123C117.695 13.8961 116.546 13.1004 115.979 12.9572C115.727 12.8935 115.444 12.7821 115.333 12.7025C115.113 12.5275 112.231 12.3842 111.743 12.5115ZM114.2 15.6149C114.908 15.8695 115.727 16.7607 115.853 17.4451C116.042 18.4795 116.058 18.4795 113.129 18.4318C110.499 18.384 110.483 18.384 110.436 18.018C110.373 17.5724 110.924 16.4743 111.397 16.0605C112.074 15.4876 113.255 15.2966 114.2 15.6149ZM125.442 12.5115C122.214 13.2914 121.049 14.4531 121.034 16.8721C121.034 19.4821 122.325 20.5802 126.151 21.2645C128.781 21.7261 129.537 22.1398 129.505 23.1425C129.489 23.8586 129.001 24.3201 128.025 24.527C126.797 24.7976 125.836 24.4952 125.065 23.6199L124.45 22.9197H122.545C121.002 22.9197 120.64 22.9674 120.64 23.1425C120.64 23.604 121.27 24.8135 121.789 25.4182C122.277 25.9434 122.655 26.198 124.136 26.9142C124.277 26.9938 125.049 27.1211 125.82 27.2166C127.253 27.3916 129.741 27.2325 130.371 26.9142C130.513 26.8505 130.922 26.6437 131.269 26.4845C132.166 26.0548 133.016 25.084 133.331 24.161C133.678 23.1106 133.583 21.6465 133.095 20.628C132.513 19.4344 130.969 18.575 128.67 18.1612C125.71 17.636 125.663 17.6201 125.191 17.1586C124.624 16.5698 124.624 16.3629 125.191 15.7263C125.647 15.217 125.679 15.2011 126.938 15.2011C128.198 15.2011 128.23 15.217 128.686 15.7263C128.938 16.0127 129.143 16.347 129.143 16.4743C129.143 16.6652 129.474 16.713 131.111 16.713C133.284 16.713 133.221 16.7607 132.843 15.6308C132.15 13.6256 130.371 12.607 127.411 12.4956C126.497 12.4638 125.616 12.4638 125.442 12.5115ZM104.5 12.8458C103.807 13.0845 102.846 13.8802 102.547 14.4531C102.248 15.026 101.98 14.7873 101.902 13.8325L101.823 12.9731H97.8864L97.8392 19.6572C97.8234 23.3334 97.8392 26.5004 97.8864 26.7073C97.9651 27.0574 98.0124 27.0574 99.9019 27.0256C100.988 27.0097 101.87 26.9142 101.933 26.8187C101.996 26.7391 102.059 25.0522 102.059 23.0788C102.059 19.9595 102.091 19.4025 102.358 18.7023C102.909 17.2541 104.09 16.3947 105.571 16.3947C105.98 16.3947 106.153 16.3151 106.2 16.1082C106.311 15.6467 106.326 13.4983 106.232 13.0208C106.137 12.6389 106.059 12.5752 105.634 12.5911C105.35 12.607 104.846 12.7184 104.5 12.8458ZM56.0011 13.0845C55.9539 13.1959 55.9381 16.331 55.9539 20.055L56.0011 26.8187L57.8749 26.8983C59.0087 26.946 59.8275 26.9142 59.9535 26.8187C60.1267 26.6914 60.1739 25.3387 60.1739 19.9277C60.1897 16.2355 60.1424 13.1322 60.0952 13.0526C59.9377 12.8139 56.0799 12.8458 56.0011 13.0845Z" fill="white"/>
</svg>
