<svg width="40" height="40" viewBox="0 0 40 40" fill="none" xmlns="http://www.w3.org/2000/svg">
<rect width="40" height="40" fill="#FFFAFA"/>
<rect width="40" height="40" stroke="#FFFEFE"/>
<path d="M17.9504 30.5C15.4682 30.5 13.0418 29.764 10.978 28.3849C8.91415 27.0059 7.30559 25.0459 6.35571 22.7527C5.40583 20.4595 5.1573 17.9361 5.64154 15.5016C6.12579 13.0672 7.32106 10.831 9.07621 9.07581C10.8314 7.32066 13.0676 6.12539 15.502 5.64114C17.9365 5.1569 20.4599 5.40543 22.7531 6.35531C25.0463 7.30519 27.0063 8.91376 28.3853 10.9776C29.7644 13.0414 30.5004 15.4678 30.5004 17.95C30.5004 19.5981 30.1758 21.23 29.5451 22.7527C28.9144 24.2753 27.99 25.6588 26.8246 26.8242C25.6592 27.9896 24.2757 28.914 22.7531 29.5447C21.2304 30.1754 19.5985 30.5 17.9504 30.5ZM17.9504 7.91667C15.9726 7.91667 14.0392 8.50316 12.3947 9.60197C10.7502 10.7008 9.46848 12.2626 8.7116 14.0898C7.95472 15.9171 7.75669 17.9278 8.14254 19.8676C8.5284 21.8074 9.4808 23.5892 10.8793 24.9877C12.2779 26.3863 14.0597 27.3387 15.9995 27.7245C17.9393 28.1104 19.95 27.9123 21.7772 27.1555C23.6045 26.3986 25.1663 25.1169 26.2651 23.4724C27.3639 21.8279 27.9504 19.8945 27.9504 17.9167C27.9504 15.2645 26.8968 12.721 25.0215 10.8456C23.1461 8.97024 20.6026 7.91667 17.9504 7.91667Z" fill="#2C2C2C"/>
<path d="M30.6022 34.5833C30.4379 34.5841 30.2752 34.5521 30.1235 34.4891C29.9718 34.4261 29.8342 34.3335 29.7188 34.2167L22.8355 27.3333C22.6147 27.0964 22.4945 26.783 22.5002 26.4591C22.5059 26.1353 22.6371 25.8263 22.8661 25.5973C23.0951 25.3683 23.4041 25.2371 23.7279 25.2314C24.0518 25.2257 24.3652 25.3459 24.6022 25.5667L31.4855 32.45C31.7196 32.6844 31.8511 33.0021 31.8511 33.3333C31.8511 33.6646 31.7196 33.9823 31.4855 34.2167C31.3701 34.3335 31.2325 34.4261 31.0808 34.4891C30.9291 34.5521 30.7664 34.5841 30.6022 34.5833Z" fill="#2C2C2C"/>
</svg>
