<svg width="81" height="71" viewBox="0 0 81 71" fill="none" xmlns="http://www.w3.org/2000/svg">
<path d="M40.6248 70.8543C28.9057 70.8543 17.1866 70.8543 5.46755 70.8543C4.89508 70.8543 4.31522 70.8543 3.74028 70.795C0.806397 70.5211 -0.37308 68.5447 0.877955 65.8723C1.96367 63.5652 3.14808 61.3173 4.29794 59.0348C9.7265 48.2879 15.1551 37.5427 20.5836 26.7991C20.7514 26.4709 20.9266 26.1427 21.1215 25.8293C22.4885 23.6382 24.7093 23.3297 26.4588 25.2199C27.6925 26.5425 28.7363 28.0279 29.8368 29.4615C35.4299 36.7704 41.0229 44.0824 46.616 51.3978C49.0588 54.5809 52.1358 54.7537 55.0056 51.8913C56.4293 50.47 57.821 49.0117 59.2621 47.6028C61.8604 45.0612 64.809 45.2142 66.9311 48.1777C71.1901 54.1244 75.3429 60.1501 79.5155 66.1561C79.8416 66.6273 80.0914 67.1469 80.2558 67.6958C80.6604 69.0752 80.088 70.1856 78.6889 70.5532C77.8116 70.7632 76.911 70.8603 76.0091 70.8419C64.221 70.8617 52.4262 70.8658 40.6248 70.8543Z" fill="#D4D2E3"/>
<path d="M66.9064 11.9668C66.9034 14.2607 66.2194 16.502 64.941 18.4066C63.6627 20.3112 61.8476 21.7934 59.7259 22.6651C57.6041 23.5369 55.2713 23.7591 53.0232 23.3035C50.7751 22.8478 48.7128 21.7349 47.098 20.1059C45.4831 18.4768 44.3883 16.4049 43.9524 14.1528C43.5165 11.9008 43.759 9.57 44.6494 7.45599C45.5397 5.34199 47.0377 3.53995 48.9535 2.27834C50.8692 1.01673 53.1164 0.352361 55.4102 0.369463C58.4646 0.408278 61.3815 1.64578 63.532 3.81519C65.6825 5.98461 66.8944 8.91219 66.9064 11.9668Z" fill="#D4D2E3"/>
</svg>
