<svg width="109" height="37" viewBox="0 0 109 37" fill="none" xmlns="http://www.w3.org/2000/svg">
<path d="M104.026 7.20952H99.2734V0.555725H88.8374L84.0381 7.20952H75.5099L72.6582 10.0612V7.20952H66.0044V0.555725H45.0925V7.20952H15.6732L10.873 0.555725H0.416992V23.3687L13.7246 36.6763H27.0322V32.8742L30.8344 36.6763H56.499V32.8742L60.3012 36.6763H72.6582V32.8742L76.4604 36.6763H100.224L108.779 28.1215V11.9622L104.026 7.20952ZM16.5762 16.7149H9.92242V18.616H16.5762V26.2204H6.12025L2.31808 22.4182V2.45681H9.92242V9.11061H16.5762V16.7149ZM45.0925 26.2204H22.2795L18.4773 22.4182V9.11061H26.0816V18.616H27.9827V9.11061H35.5871V18.616H37.4882V9.11061H45.0925V26.2204ZM54.5979 26.2204H46.9936V9.11061H54.5979V26.2204ZM54.5979 7.20952H46.9936V2.45681H54.5979V7.20952ZM70.7571 16.7149H64.1033V18.616H70.7571V26.2204H60.3012L56.499 22.4182V2.45681H64.1033V9.11061H70.7571V16.7149ZM87.8669 16.7149H80.2626V18.616H87.8669V26.2204H76.4604L72.6582 22.4182V12.9128L76.4604 9.11061H87.8669V16.7149ZM106.878 26.2204H99.2734V16.7149H97.3723V26.2204H89.768V2.45681H97.3723V9.11061H103.076L106.878 12.9128V26.2204Z" fill="white"/>
</svg>
