<svg width="136" height="35" viewBox="0 0 136 35" fill="none" xmlns="http://www.w3.org/2000/svg">
<path d="M44.3228 13.9206C44.3228 11.5015 41.9704 8.93216 37.8996 8.93216C33.3282 8.93216 28.3064 12.2856 27.539 18.9758C26.7548 25.7327 30.9591 28.7357 35.1968 28.7357C39.4345 28.7357 41.6534 27.084 43.9224 24.8818C41.9704 22.4293 39.4511 23.5638 38.9673 23.814C38.4334 24.081 37.7494 24.448 36.348 24.448C34.713 24.448 33.0446 23.7139 33.0446 20.6608C43.522 19.6264 44.3228 16.3397 44.3228 13.9206ZM39.1342 14.321C39.0674 15.0718 38.7671 16.3564 33.4617 17.0738C34.5795 13.1031 36.715 12.8028 37.6994 12.8028C38.617 12.8028 39.2009 13.5202 39.1342 14.321ZM21.3827 14.9717C21.3827 14.9717 19.1304 22.0456 18.9469 22.6295C18.8801 22.0289 17.2285 9.33257 17.2285 9.33257C13.3912 9.33257 11.3391 12.0687 10.2547 14.955C10.2547 14.955 7.51854 22.0456 7.28497 22.6462C7.26828 22.0956 6.86787 15.0384 6.86787 15.0384C6.6343 11.5015 3.39766 9.34925 0.77832 9.34925L3.94822 28.5856C7.969 28.5689 10.1379 25.8494 11.2724 22.9632C11.2724 22.9632 13.6915 16.7068 13.7916 16.4231C13.8083 16.6901 15.5267 28.5856 15.5267 28.5856C19.5642 28.5856 21.7331 26.033 22.9009 23.2468L28.5567 9.34925C24.5693 9.34925 22.4671 12.0687 21.3827 14.9717ZM59.1379 8.89879C56.652 8.89879 54.7501 10.2502 53.1485 12.2355V12.2189L54.5833 0.657043C51.2799 0.657043 48.5938 3.52664 48.0766 7.79767L45.5741 28.4354C47.476 28.4354 49.4947 27.8849 50.5792 26.4834C51.5468 27.7347 52.9983 28.7357 55.1505 28.7357C60.7229 28.7357 64.5434 22.2624 64.5434 16.1896C64.5101 10.6506 61.824 8.89879 59.1379 8.89879ZM58.6207 18.8256C58.0368 22.2124 56.1515 24.5147 54.333 24.5147C52.4978 24.5147 51.7137 23.6972 51.7137 23.6972C52.064 20.7275 52.2809 18.909 52.9483 17.3407C53.6156 15.7725 55.2006 13.2699 56.8523 13.2699C58.4706 13.2699 59.2047 15.4221 58.6207 18.8256ZM78.4576 9.34925H74.5703L74.587 9.14905C74.854 6.61313 75.4546 5.27843 77.4399 5.06154C78.7913 4.92807 79.3919 4.22736 79.5421 3.45991C79.6589 2.85929 80.0259 0.773829 80.0259 0.773829C72.2179 0.723778 69.7654 4.09389 69.1315 9.23247L69.1148 9.34925H69.0314C67.7634 9.34925 66.362 10.7841 66.1284 12.6026L66.045 13.2699H68.6476L66.4621 31.3217L65.7947 34.5583C65.8781 34.5583 65.9782 34.575 66.0617 34.575C69.7154 34.4415 72.0511 31.5553 72.5683 27.3677L74.27 13.2699H75.488C76.6892 13.2699 78.0906 12.0687 78.3409 10.0667L78.4576 9.34925ZM98.6783 9.01558C94.1904 9.01558 89.9527 12.319 88.6514 17.5076C87.3501 22.6962 89.3187 28.8358 95.9255 28.8358C102.516 28.8358 106.319 22.446 106.319 17.1239C106.319 11.8351 102.732 9.01558 98.6783 9.01558ZM100.497 18.6588C100.263 21.0112 99.2289 24.5815 96.3926 24.5815C93.5397 24.5815 93.9401 20.4106 94.2237 18.4252C94.5241 16.3064 95.7086 13.2866 98.2612 13.2866C100.547 13.2866 100.764 16.0061 100.497 18.6588ZM128.492 14.9717C128.492 14.9717 126.24 22.0456 126.056 22.6295C125.99 22.0289 124.338 9.33257 124.338 9.33257C120.501 9.33257 118.448 12.0687 117.364 14.955C117.364 14.955 114.628 22.0456 114.394 22.6462C114.378 22.0956 113.977 15.0384 113.977 15.0384C113.744 11.5015 110.507 9.34925 107.888 9.34925L111.041 28.5856C115.062 28.5689 117.231 25.8494 118.365 22.9632C118.365 22.9632 120.784 16.7068 120.868 16.4231C120.901 16.6901 122.603 28.5856 122.603 28.5856C126.64 28.5856 128.809 26.033 129.977 23.2468L135.633 9.34925C131.662 9.34925 129.56 12.0687 128.492 14.9717ZM82.1281 0.773829L78.8581 27.1508L78.1907 30.4041C78.2741 30.4041 78.3742 30.4208 78.4576 30.4208C81.9779 30.3707 84.4805 27.2842 84.9476 23.3969L86.8329 8.26481C87.4001 3.64343 84.6473 0.773829 82.1281 0.773829Z" fill="white"/>
</svg>
