<svg width="127" height="29" viewBox="0 0 127 29" fill="none" xmlns="http://www.w3.org/2000/svg">
<path d="M21.4016 28.6356L13.1523 28.4831C10.4813 28.43 7.80371 28.5361 5.18521 27.9856C1.20166 27.1631 0.919467 23.1304 0.624147 19.7477C0.217261 14.992 0.374765 10.1501 1.1426 5.43424C1.57573 2.78777 3.28203 1.20918 5.92023 1.03673C14.8258 0.413249 23.7904 0.48621 32.6763 0.778051C33.6147 0.804582 34.5597 0.950502 35.4851 1.11632C40.0527 1.92552 40.1643 6.49548 40.4596 10.3425C40.7549 14.2293 40.6302 18.136 40.0658 21.9962C39.613 25.1932 38.7467 27.8728 35.0913 28.1315C30.5106 28.4698 26.0348 28.7417 21.441 28.6555C21.441 28.6356 21.4147 28.6356 21.4016 28.6356ZM16.5518 20.5437C20.0037 18.5406 23.3901 16.5706 26.8223 14.5808C23.3638 12.5777 19.984 10.6078 16.5518 8.61796V20.5437Z" fill="white"/>
<path d="M106.627 25.001C106.47 25.651 106.332 26.1617 106.194 26.7056H102.965V1.53406H106.732V10.82C106.929 10.568 107.027 10.4618 107.113 10.3491C107.756 9.45364 108.589 8.86996 109.666 8.64444C111.378 8.30617 112.842 9.06894 113.36 10.7338C113.695 11.7685 113.912 12.8762 113.938 13.9573C113.99 16.7365 113.951 19.509 113.853 22.2881C113.813 23.1371 113.557 24.006 113.236 24.802C112.179 27.4286 108.727 27.8265 107.014 25.5515C106.909 25.4122 106.811 25.2596 106.627 25.001ZM106.811 18.0763V22.6795C106.811 23.429 107.205 23.8867 107.946 24.0591C108.675 24.2316 109.265 23.9463 109.561 23.2632C109.685 22.978 109.81 22.6795 109.816 22.381C109.889 19.5687 109.954 16.7564 109.974 13.9374C109.974 13.4134 109.849 12.8695 109.692 12.3588C109.396 11.4369 108.583 11.1649 107.782 11.7022C107.178 12.1134 106.811 12.6971 106.811 13.4731V18.0763ZM96.573 9.00261H100.517V26.7189H97.4393C97.3277 26.049 97.2161 25.3591 97.0849 24.5499C96.8749 24.8617 96.7502 25.0607 96.6189 25.2596C95.5952 26.752 94.1448 27.2628 92.432 26.9908C90.9685 26.752 90.0891 25.6112 89.8922 23.7407C89.8331 23.1836 89.8069 22.6198 89.8069 22.0626C89.7938 17.9171 89.8069 13.7583 89.8069 9.61283V8.98935H93.797V9.71232C93.797 13.7185 93.7839 17.7181 93.8101 21.7244C93.8101 22.2948 93.8692 22.8851 93.9676 23.4555C94.0792 24.0392 94.4992 24.2515 95.0636 24.2117C95.9758 24.1387 96.6058 23.4555 96.6058 22.5402V9.78528C96.573 9.5266 96.573 9.28782 96.573 9.00261ZM69.4167 8.98935H73.3805V9.73885C73.3805 13.7252 73.3674 17.7049 73.3937 21.6779C73.3937 22.2483 73.4462 22.8387 73.5643 23.3958C73.7152 24.0525 74.0959 24.2647 74.7456 24.1785C75.6447 24.0525 76.1894 23.4224 76.1959 22.5004V9.81182V9.01588H80.1401V26.7189H77.0753C76.9638 26.0622 76.8522 25.3857 76.7078 24.53C76.5109 24.8285 76.3994 25.001 76.2878 25.1801C75.264 26.699 73.8268 27.2561 72.0746 26.9842C70.6702 26.7719 69.8105 25.7239 69.5479 24.006C69.4758 23.4688 69.4233 22.9382 69.4233 22.4009C69.4101 18.0962 69.4101 13.7716 69.4101 9.46691L69.4167 8.98935ZM67.3823 18.4477C67.3691 19.0447 67.3298 19.6417 67.2969 20.2386C67.146 22.0295 67.0738 24.5698 65.6432 25.8765C64.7309 26.699 63.5759 26.9974 62.3815 27.0372C61.8499 27.0505 61.3118 27.0505 60.7802 26.9775C58.2667 26.5928 57.0986 25.4719 56.6786 22.6795C56.1995 19.4559 56.1601 16.1793 56.7311 12.9558C57.3217 9.61946 59.3561 8.43882 62.5193 8.6577C65.4725 8.86995 66.7916 10.8266 67.1394 13.6124C67.3298 15.2109 67.4216 16.8293 67.3823 18.4477ZM63.3659 17.8375C63.3659 16.7033 63.3922 15.5625 63.3528 14.4283C63.3265 13.7716 63.2412 13.1083 63.1034 12.4583C62.9459 11.7088 62.4734 11.3506 61.8827 11.3639C61.3052 11.3772 60.8983 11.7353 60.6883 12.4318C60.6162 12.6905 60.5374 12.9558 60.5374 13.2145C60.5374 14.992 60.5243 16.7763 60.5111 18.5539C60.498 20.2121 60.288 21.9499 60.8065 23.5351C60.964 24.0193 61.3709 24.2846 61.9024 24.2846C62.4209 24.2846 62.7621 24.0259 62.9525 23.5616C63.1034 23.2035 63.2347 22.8121 63.2347 22.4274C63.2806 20.9019 63.3659 19.3697 63.3659 17.8375ZM50.8903 14.5012C51.2381 12.7833 51.5662 11.1052 51.9272 9.42048C52.38 7.27808 52.8853 5.13568 53.3316 2.98664C53.4432 2.46265 53.6532 2.33663 54.1454 2.34989C55.202 2.38969 56.2782 2.36316 57.407 2.36316C57.0395 3.72952 56.6786 5.02955 56.3242 6.30969C55.202 10.3292 54.0797 14.3619 52.9706 18.3947C52.8853 18.7064 52.846 19.0447 52.846 19.3763C52.8328 21.5784 52.846 23.7739 52.846 25.976V26.6923H48.9937C48.9805 26.4934 48.9543 26.2944 48.9543 26.0954C48.9543 24.8484 48.8559 23.5948 48.9674 22.3611C49.2496 19.3962 48.3177 16.6701 47.563 13.9109C46.5655 10.2628 45.5548 6.60153 44.5573 2.95348C44.5048 2.78103 44.4851 2.59531 44.4326 2.38306H48.3637C49.1906 6.40918 50.024 10.4353 50.8903 14.5012ZM126.262 19.1243H119.621C119.693 20.4708 119.72 21.7509 119.857 23.0178C119.956 23.8999 120.435 24.278 121.19 24.2846C121.977 24.2979 122.436 23.8999 122.62 23.0244C122.679 22.7392 122.719 22.454 122.745 22.1621C122.771 21.9034 122.784 21.6249 122.804 21.2534C123.926 21.3131 125.022 21.3794 126.105 21.4259C126.735 23.3162 125.6 25.7438 123.69 26.4934C122.187 27.0903 120.645 27.0903 119.109 26.6326C117.974 26.2944 117.127 25.5648 116.747 24.4438C116.392 23.3958 116.058 22.3014 115.985 21.207C115.788 18.5074 115.716 15.7814 116.123 13.0752C116.195 12.6241 116.32 12.193 116.458 11.7552C117.009 9.9511 118.21 8.84342 120.067 8.6577C121.078 8.55821 122.121 8.59801 123.119 8.77046C124.733 9.05567 125.593 10.2297 125.967 11.7685C126.138 12.4915 126.263 13.2343 126.289 13.9706C126.295 15.662 126.262 17.3401 126.262 19.1243ZM122.489 16.7962C122.489 15.463 122.502 14.2094 122.476 12.9491C122.476 12.6507 122.364 12.3389 122.253 12.0537C122.03 11.4966 121.564 11.344 121.006 11.344C120.448 11.344 120.094 11.6292 119.956 12.1399C119.536 13.6721 119.674 15.2375 119.687 16.8094C120.691 16.7962 121.603 16.7962 122.489 16.7962Z" fill="white"/>
<path d="M83.185 5.61347H79.2803V2.41644H90.9355V5.59357H87.057V26.6926H83.1916L83.185 5.61347Z" fill="white"/>
</svg>
